<svg aria-hidden="true" style="position: absolute; width: 0; height: 0; overflow: hidden;" version="1.1" xmlns="http://www.w3.org/2000/svg" xmlns:xlink="http://www.w3.org/1999/xlink">
<defs>
<symbol id="icon-chevron-left-32px" viewBox="0 0 32 32">
<path fill="none" stroke="#fff" style="stroke: var(--color1, #fff)" stroke-linejoin="miter" stroke-linecap="butt" stroke-miterlimit="4" stroke-width="0.9412" d="M8.471 0.471h15.059c4.418 0 8 3.582 8 8v15.059c0 4.418-3.582 8-8 8h-15.059c-4.418 0-8-3.582-8-8v-15.059c0-4.418 3.582-8 8-8z"></path>
<path fill="none" stroke="#fff" style="stroke: var(--color1, #fff)" stroke-linejoin="round" stroke-linecap="round" stroke-miterlimit="4" stroke-width="0.9412" d="M18.118 20.235l-4.235-4.235 4.235-4.235"></path>
</symbol>
<symbol id="icon-chevron-left-40px" viewBox="0 0 32 32">
<path fill="none" stroke="#fff" style="stroke: var(--color1, #fff)" stroke-linejoin="miter" stroke-linecap="butt" stroke-miterlimit="4" stroke-width="0.7619" d="M6.857 0.381h18.286c3.577 0 6.476 2.9 6.476 6.476v18.286c0 3.577-2.899 6.476-6.476 6.476h-18.286c-3.577 0-6.476-2.899-6.476-6.476v-18.286c0-3.577 2.9-6.476 6.476-6.476z"></path>
<path fill="none" stroke="#fff" style="stroke: var(--color1, #fff)" stroke-linejoin="round" stroke-linecap="round" stroke-miterlimit="4" stroke-width="0.7619" d="M18.286 20.571l-4.571-4.571 4.571-4.571"></path>
</symbol>
<symbol id="icon-chevron-right-32px" viewBox="0 0 32 32">
<path fill="none" stroke="#fff" style="stroke: var(--color1, #fff)" stroke-linejoin="miter" stroke-linecap="butt" stroke-miterlimit="4" stroke-width="0.9412" d="M8.471 0.471h15.059c4.418 0 8 3.582 8 8v15.059c0 4.418-3.582 8-8 8h-15.059c-4.418 0-8-3.582-8-8v-15.059c0-4.418 3.582-8 8-8z"></path>
<path fill="none" stroke="#fff" style="stroke: var(--color1, #fff)" stroke-linejoin="round" stroke-linecap="round" stroke-miterlimit="4" stroke-width="0.9412" d="M13.882 20.235l4.235-4.235-4.235-4.235"></path>
</symbol>
<symbol id="icon-chevron-right-40px" viewBox="0 0 32 32">
<path fill="none" stroke="#fff" style="stroke: var(--color1, #fff)" stroke-linejoin="miter" stroke-linecap="butt" stroke-miterlimit="4" stroke-width="0.7619" d="M6.857 0.381h18.286c3.577 0 6.476 2.9 6.476 6.476v18.286c0 3.577-2.899 6.476-6.476 6.476h-18.286c-3.577 0-6.476-2.899-6.476-6.476v-18.286c0-3.577 2.9-6.476 6.476-6.476z"></path>
<path fill="none" stroke="#fff" style="stroke: var(--color1, #fff)" stroke-linejoin="round" stroke-linecap="round" stroke-miterlimit="4" stroke-width="0.7619" d="M13.714 20.571l4.571-4.571-4.571-4.571"></path>
</symbol>
<symbol id="icon-cross20px" viewBox="0 0 32 32">
<path fill="none" stroke="#fff" style="stroke: var(--color1, #fff)" stroke-linejoin="round" stroke-linecap="round" stroke-miterlimit="4" stroke-width="2.0800" d="M24 8l-16 16M8 8l16 16"></path>
</symbol>
<symbol id="icon-cross24px" viewBox="0 0 32 32">
<path fill="none" stroke="#fff" style="stroke: var(--color1, #fff)" stroke-linejoin="round" stroke-linecap="round" stroke-miterlimit="4" stroke-width="1.7333" d="M24 8l-16 16M8 8l16 16"></path>
</symbol>
<symbol id="icon-facebook40px" viewBox="0 0 32 32">
<path fill="#fff" style="fill: var(--color1, #fff)" opacity="0.8" d="M18.112 9.184h0.576v2.16h-0.72c-0.288 0-0.576 0-0.72 0.144s-0.144 0.288-0.144 0.624v0.768h1.584v1.824h-1.584v7.92h-2.448v-7.968h-1.296v-1.824h1.296v-0.624c0-1.056 0.144-1.824 0.432-2.16 0.432-0.624 1.296-0.912 2.592-0.912 0.144 0.048 0.288 0.048 0.432 0.048z"></path>
<path fill="none" stroke="#fff" style="stroke: var(--color1, #fff)" stroke-linejoin="miter" stroke-linecap="butt" stroke-miterlimit="4" stroke-width="0.8" d="M8 0.4h16c4.197 0 7.6 3.403 7.6 7.6v16c0 4.197-3.403 7.6-7.6 7.6h-16c-4.197 0-7.6-3.403-7.6-7.6v-16c0-4.197 3.403-7.6 7.6-7.6z"></path>
</symbol>
<symbol id="icon-facebook44px" viewBox="0 0 32 32">
<path fill="#fff" style="fill: var(--color1, #fff)" opacity="0.8" d="M18.24 8.771h0.611v2.291h-0.764c-0.305 0-0.611 0-0.764 0.153s-0.153 0.305-0.153 0.662v0.815h1.68v1.935h-1.68v8.4h-2.596v-8.451h-1.375v-1.935h1.375v-0.662c0-1.12 0.153-1.935 0.458-2.291 0.458-0.662 1.375-0.967 2.749-0.967 0.153 0.051 0.305 0.051 0.458 0.051z"></path>
<path fill="none" stroke="#fff" style="stroke: var(--color1, #fff)" stroke-linejoin="miter" stroke-linecap="butt" stroke-miterlimit="4" stroke-width="0.7273" d="M7.273 0.364h17.455c3.816 0 6.909 3.093 6.909 6.909v17.455c0 3.816-3.093 6.909-6.909 6.909h-17.455c-3.816 0-6.909-3.093-6.909-6.909v-17.455c0-3.816 3.093-6.909 6.909-6.909z"></path>
</symbol>
<symbol id="icon-ggmenu" viewBox="0 0 32 32">
<path fill="#fff" style="fill: var(--color1, #fff)" d="M2.667 7.993c0-0.733 0.595-1.327 1.327-1.327h10.68c0.733 0 1.327 0.594 1.327 1.327s-0.594 1.327-1.327 1.327h-10.68c-0.733 0-1.327-0.594-1.327-1.327v0zM2.667 16c0-0.733 0.595-1.327 1.327-1.327h24.013c0.733 0 1.327 0.594 1.327 1.327s-0.594 1.327-1.327 1.327h-24.013c-0.733 0-1.327-0.594-1.327-1.327v0zM3.993 22.68c-0.733 0-1.327 0.594-1.327 1.327s0.594 1.327 1.327 1.327h16.013c0.733 0 1.327-0.594 1.327-1.327s-0.594-1.327-1.327-1.327h-16.013z"></path>
</symbol>
<symbol id="icon-heart" viewBox="0 0 32 32">
<path fill="none" stroke="#fff" style="stroke: var(--color1, #fff)" stroke-linejoin="round" stroke-linecap="round" stroke-miterlimit="4" stroke-width="2.6667" d="M27.787 6.147c-1.327-1.328-3.161-2.149-5.187-2.149s-3.859 0.821-5.187 2.149l-1.413 1.413-1.413-1.413c-1.327-1.327-3.161-2.148-5.187-2.148-4.051 0-7.335 3.284-7.335 7.335 0 2.026 0.821 3.859 2.148 5.187l11.787 11.787 11.787-11.787c1.328-1.327 2.149-3.161 2.149-5.187s-0.821-3.859-2.149-5.187l-0-0z"></path>
</symbol>
<symbol id="icon-instagram40px" viewBox="0 0 32 32">
<path fill="#fff" style="fill: var(--color1, #fff)" opacity="0.8" d="M23.63 12.854c-0.009-0.68-0.14-1.328-0.37-1.925l0.013 0.038c-0.409-1.033-1.212-1.835-2.219-2.232l-0.027-0.009c-0.552-0.213-1.191-0.343-1.858-0.357l-0.006-0c-0.821-0.037-1.082-0.047-3.164-0.047s-2.35 0-3.165 0.047c-0.673 0.014-1.312 0.144-1.903 0.371l0.039-0.013c-1.034 0.407-1.837 1.209-2.236 2.215l-0.009 0.027c-0.214 0.551-0.344 1.189-0.357 1.855l-0 0.005c-0.037 0.82-0.048 1.080-0.048 3.159s0 2.345 0.048 3.159c0.013 0.672 0.143 1.311 0.37 1.901l-0.013-0.038c0.409 1.033 1.213 1.834 2.221 2.232l0.027 0.009c0.594 0.232 1.224 0.363 1.864 0.384 0.821 0.036 1.081 0.047 3.164 0.047s2.35 0 3.165-0.048c0.673-0.014 1.312-0.143 1.903-0.37l-0.039 0.013c1.033-0.408 1.836-1.209 2.236-2.215l0.009-0.027c0.214-0.552 0.344-1.19 0.358-1.857l0-0.006c0.037-0.819 0.048-1.079 0.048-3.16-0.002-2.078-0.002-2.342-0.050-3.158zM15.994 19.918c-0.001 0-0.003 0-0.004 0-2.174 0-3.937-1.762-3.939-3.936v-0c0.001-2.175 1.764-3.937 3.939-3.937 0.002 0 0.003 0 0.005 0h-0c0.001 0 0.002 0 0.003 0 2.175 0 3.938 1.762 3.94 3.936v0c-0.002 2.175-1.765 3.937-3.94 3.937-0.001 0-0.003 0-0.004 0h0zM20.094 12.818c-0.507 0-0.918-0.411-0.918-0.918s0.411-0.918 0.918-0.918v0c0.507 0 0.918 0.411 0.918 0.918s-0.411 0.918-0.918 0.918v0z"></path>
<path fill="#fff" style="fill: var(--color1, #fff)" opacity="0.8" d="M15.995 18.386c1.327 0 2.402-1.076 2.402-2.402s-1.076-2.402-2.402-2.402v0c-1.327 0-2.402 1.076-2.402 2.402s1.076 2.402 2.402 2.402v0z"></path>
<path fill="none" stroke="#fff" style="stroke: var(--color1, #fff)" stroke-linejoin="miter" stroke-linecap="butt" stroke-miterlimit="4" stroke-width="0.8" d="M8 0.4h16c4.197 0 7.6 3.403 7.6 7.6v16c0 4.197-3.403 7.6-7.6 7.6h-16c-4.197 0-7.6-3.403-7.6-7.6v-16c0-4.197 3.403-7.6 7.6-7.6z"></path>
</symbol>
<symbol id="icon-instagram44px" viewBox="0 0 32 32">
<path fill="#fff" style="fill: var(--color1, #fff)" opacity="0.8" d="M24.093 12.663c-0.010-0.722-0.148-1.408-0.393-2.042l0.014 0.040c-0.434-1.096-1.286-1.946-2.354-2.368l-0.028-0.010c-0.586-0.226-1.263-0.364-1.971-0.38l-0.006-0c-0.87-0.039-1.146-0.049-3.355-0.049s-2.492 0-3.356 0.049c-0.676 0.015-1.344 0.142-1.977 0.38-1.097 0.432-1.949 1.282-2.372 2.35l-0.010 0.028c-0.227 0.585-0.365 1.261-0.379 1.967l-0 0.006c-0.039 0.87-0.051 1.145-0.051 3.351s0 2.487 0.051 3.351c0.013 0.676 0.141 1.343 0.378 1.975 0.434 1.096 1.286 1.946 2.355 2.368l0.028 0.010c0.584 0.235 1.26 0.382 1.967 0.406l0.010 0c0.871 0.039 1.147 0.051 3.356 0.051s2.492 0 3.356-0.051c0.714-0.014 1.392-0.152 2.018-0.392l-0.041 0.014c1.096-0.432 1.948-1.283 2.372-2.35l0.010-0.028c0.238-0.632 0.366-1.298 0.379-1.975 0.039-0.869 0.051-1.145 0.051-3.351-0.001-2.205-0.001-2.485-0.052-3.349zM15.993 20.156c-0.001 0-0.002 0-0.004 0-2.307 0-4.177-1.869-4.178-4.175v-0c0.001-2.306 1.871-4.175 4.177-4.175 0.002 0 0.003 0 0.005 0h-0c2.309 0 4.182 1.869 4.182 4.175-0.002 2.307-1.872 4.176-4.179 4.176-0.001 0-0.002 0-0.003 0h0zM20.342 12.625c-0.538 0-0.973-0.436-0.973-0.973s0.436-0.973 0.973-0.973v0c0.008-0 0.017-0 0.027-0 0.538 0 0.974 0.436 0.974 0.974s-0.436 0.974-0.974 0.974c-0.009 0-0.019-0-0.028-0l0.001 0z"></path>
<path fill="#fff" style="fill: var(--color1, #fff)" opacity="0.8" d="M15.995 18.53c0.013 0 0.028 0 0.043 0 1.407 0 2.548-1.141 2.548-2.548s-1.141-2.548-2.548-2.548c-0.015 0-0.030 0-0.045 0l0.002-0c-1.389 0.024-2.505 1.156-2.505 2.548s1.117 2.524 2.503 2.548l0.002 0z"></path>
<path fill="none" stroke="#fff" style="stroke: var(--color1, #fff)" stroke-linejoin="miter" stroke-linecap="butt" stroke-miterlimit="4" stroke-width="0.7273" d="M7.273 0.364h17.455c3.816 0 6.909 3.093 6.909 6.909v17.455c0 3.816-3.093 6.909-6.909 6.909h-17.455c-3.816 0-6.909-3.093-6.909-6.909v-17.455c0-3.816 3.093-6.909 6.909-6.909z"></path>
</symbol>
<symbol id="icon-youtube40px" viewBox="0 0 32 32">
<path fill="#fff" style="fill: var(--color1, #fff)" opacity="0.8" d="M20.944 10c-0.816-0.048-2.496-0.096-5.040-0.096h-0.336c-2.448 0-4.080 0.048-4.896 0.144-1.104 0.096-1.872 0.384-2.304 0.768-0.384 0.336-0.672 0.96-0.768 1.776-0.048 0.528-0.096 1.632-0.096 3.312v0.24c0 1.584 0.048 2.688 0.144 3.216 0.144 0.768 0.384 1.344 0.864 1.68 0.48 0.384 1.296 0.624 2.448 0.72 0.816 0.048 2.496 0.096 5.040 0.096h0.336c2.448 0 4.080-0.048 4.896-0.144 1.104-0.096 1.872-0.384 2.304-0.768 0.384-0.336 0.672-0.96 0.768-1.776 0.048-0.528 0.096-1.632 0.096-3.312v-0.24c0-1.584-0.048-2.688-0.144-3.216-0.144-0.768-0.384-1.344-0.864-1.68-0.48-0.384-1.296-0.624-2.448-0.72zM19.072 15.904l-5.28 3.168v-6.336l5.28 3.168z"></path>
<path fill="none" stroke="#fff" style="stroke: var(--color1, #fff)" stroke-linejoin="miter" stroke-linecap="butt" stroke-miterlimit="4" stroke-width="0.8" d="M8 0.4h16c4.197 0 7.6 3.403 7.6 7.6v16c0 4.197-3.403 7.6-7.6 7.6h-16c-4.197 0-7.6-3.403-7.6-7.6v-16c0-4.197 3.403-7.6 7.6-7.6z"></path>
</symbol>
<symbol id="icon-youtube44px" viewBox="0 0 32 32">
<path fill="#fff" style="fill: var(--color1, #fff)" opacity="0.8" d="M21.244 9.636c-0.865-0.051-2.647-0.102-5.345-0.102h-0.356c-2.596 0-4.327 0.051-5.193 0.153-1.171 0.102-1.985 0.407-2.444 0.815-0.407 0.356-0.713 1.018-0.815 1.884-0.051 0.56-0.102 1.731-0.102 3.513v0.255c0 1.68 0.051 2.851 0.153 3.411 0.153 0.815 0.407 1.425 0.916 1.782 0.509 0.407 1.375 0.662 2.596 0.764 0.865 0.051 2.647 0.102 5.345 0.102h0.356c2.596 0 4.327-0.051 5.193-0.153 1.171-0.102 1.985-0.407 2.444-0.815 0.407-0.356 0.713-1.018 0.815-1.884 0.051-0.56 0.102-1.731 0.102-3.513v-0.255c0-1.68-0.051-2.851-0.153-3.411-0.153-0.815-0.407-1.425-0.916-1.782-0.509-0.407-1.375-0.662-2.596-0.764zM19.258 15.898l-5.6 3.36v-6.72l5.6 3.36z"></path>
<path fill="none" stroke="#fff" style="stroke: var(--color1, #fff)" stroke-linejoin="miter" stroke-linecap="butt" stroke-miterlimit="4" stroke-width="0.7273" d="M7.273 0.364h17.455c3.816 0 6.909 3.093 6.909 6.909v17.455c0 3.816-3.093 6.909-6.909 6.909h-17.455c-3.816 0-6.909-3.093-6.909-6.909v-17.455c0-3.816 3.093-6.909 6.909-6.909z"></path>
</symbol>
<symbol id="icon-x" viewBox="0 0 32 32">
<path d="M32 3.223l-3.223-3.223-12.777 12.777-12.777-12.777-3.223 3.223 12.777 12.777-12.777 12.777 3.223 3.223 12.777-12.777 12.777 12.777 3.223-3.223-12.777-12.777 12.777-12.777z"></path>
</symbol>
</defs>
</svg>